<!-- icon666.com - MILLIONS OF FREE VECTOR ICONS --><svg xmlns="http://www.w3.org/2000/svg" xmlns:xlink="http://www.w3.org/1999/xlink" version="1.1" id="Layer_1" x="0px" y="0px" viewBox="0 0 505 505" style="enable-background:new 0 0 505 505;" xml:space="preserve"><g><g><path style="fill:#FFEC40;" d="M435.68,272.02v76.6l-297.84,56.03l-74.28-74.28l5.8-58.35c0.37-7.29,0.92-14.5,1.63-21.62 C84.73,112.78,160.77,7.5,252.52,7.5s167.79,105.28,181.53,242.9C434.76,257.52,435.31,264.73,435.68,272.02z"></path><path style="fill:#FFC943;" d="M144.543,272.024l-3.38,58.35l38.69,66.38l-42.01,7.9l-74.28-74.28l5.79-58.35 c7.46-146.58,85.09-262.2,180.28-264.48C194.144,9.824,148.894,125.434,144.543,272.024z"></path><path style="fill:#FFC943;" d="M251.753,7.514c-0.5,0-1,0-1.5,0.01c0.35-0.02,0.71-0.02,1.06-0.02 C251.463,7.504,251.603,7.504,251.753,7.514z"></path><path style="fill:#FFEC40;" d="M433.985,249.819c28.347-49.761,55.062-96.023,34.863-116.222 c-20.199-20.199-55.477,22.423-55.477,22.423"></path><path style="fill:#FFC943;" d="M433.985,249.819l-6.84-31.12c20.6-36.53,37.63-69.77,32.06-90.25c3.43,0.59,6.7,2.2,9.65,5.15 C489.055,153.799,462.335,200.059,433.985,249.819z"></path><path style="fill:#FFEC40;" d="M71.054,249.819c-28.347-49.761-55.062-96.023-34.863-116.222s55.477,22.423,55.477,22.423"></path><path style="fill:#FFC943;" d="M71.054,249.819l6.84-31.12c-20.6-36.53-37.63-69.77-32.06-90.25c-3.43,0.59-6.7,2.2-9.65,5.15 C15.985,153.799,42.705,200.059,71.054,249.819z"></path><path style="fill:#FFC943;" d="M435.68,272.02v76.6l-297.84,56.03l-74.28-74.28l5.8-58.35c0.37-7.29,0.92-14.5,1.63-21.62 l31.84,23.28l83.94-45.61l65.75,44.31l65.74-44.31l83.95,45.61l31.84-23.28C434.76,257.52,435.31,264.73,435.68,272.02z"></path><path style="fill:#E6E6E6;" d="M462.38,252.5c0,135.31-93.96,245-209.86,245S42.66,387.81,42.66,252.5l60.17,43.99l83.94-45.61 l65.75,44.31l65.74-44.31l83.95,45.61L462.38,252.5z"></path><path style="fill:#CCCCCC;" d="M252.52,497.5c-115.9,0-209.86-109.69-209.86-245l60.17,43.99l46.62-25.33 C153.48,397.75,198.08,497.5,252.52,497.5z"></path><g><path style="fill:#FF4370;" d="M287.386,216.264l-25.058,18.371c-2.912,2.143-6.36,3.215-9.809,3.215 c-3.436,0-6.873-1.06-9.785-3.192c-0.012-0.012-0.023-0.012-0.035-0.023l-25.058-18.371c-0.035-0.035-0.082-0.058-0.117-0.082 c-0.047-0.035-0.081-0.07-0.128-0.105c-7.758-5.906-8.783-17.218-2.167-24.429c0.023-0.023,0.047-0.058,0.07-0.082l25.058-26.957 c0.012-0.012,0.023-0.023,0.035-0.035c3.285-3.506,7.7-5.266,12.127-5.266c4.427,0,8.842,1.759,12.127,5.266 c0.012,0.012,0.023,0.023,0.035,0.035l25.058,26.957c0.023,0.023,0.035,0.035,0.047,0.058 C296.496,198.906,295.378,210.404,287.386,216.264z"></path><path style="fill:#E52E62;" d="M252.52,159.31v78.54c-3.436,0-6.873-1.06-9.785-3.192c-0.012-0.012-0.023-0.012-0.035-0.023 l-25.058-18.371c-0.035-0.035-0.082-0.058-0.117-0.082c-7.875-5.883-8.947-17.288-2.295-24.533 c0.023-0.023,0.047-0.058,0.07-0.082l25.058-26.957c0.012-0.012,0.023-0.023,0.035-0.035 C243.678,161.069,248.093,159.31,252.52,159.31z"></path></g><g><ellipse style="fill:#FFC943;" cx="343.449" cy="213.09" rx="22.48" ry="15.638"></ellipse><ellipse style="fill:#FFC943;" cx="155.794" cy="213.09" rx="22.48" ry="15.638"></ellipse></g></g><g><path d="M295.233,186.461l-25.058-26.957c-0.034-0.037-0.079-0.083-0.123-0.129c-4.543-4.809-10.927-7.565-17.532-7.565 c-6.625,0-13.029,2.773-17.517,7.55c-0.046,0.048-0.092,0.096-0.138,0.145l-25.058,26.957c-0.065,0.07-0.131,0.144-0.197,0.219 c-4.51,4.973-6.754,11.647-6.158,18.334c0.593,6.659,3.953,12.805,9.261,16.922c0.096,0.079,0.195,0.158,0.302,0.239 c0.084,0.063,0.169,0.124,0.255,0.184l24.995,18.325l0,0c0.049,0.036,0.099,0.072,0.149,0.107c4.124,2.984,8.998,4.56,14.105,4.56 c5.17,0,10.1-1.616,14.243-4.667l25.058-18.371v0c5.53-4.055,9.082-10.293,9.744-17.115c0.654-6.742-1.571-13.465-6.109-18.485 C295.383,186.626,295.308,186.542,295.233,186.461z M245.784,169.79c0.029-0.031,0.058-0.061,0.082-0.086 c1.748-1.866,4.111-2.893,6.654-2.893s4.906,1.027,6.653,2.893c0.024,0.026,0.055,0.058,0.087,0.09l21.955,23.619 c-9.337,2.539-18.951,3.825-28.696,3.826c-0.002,0-0.003,0-0.006,0c-9.742,0-19.355-1.285-28.692-3.822L245.784,169.79z M282.952,210.215l-25.069,18.38c-1.56,1.148-3.415,1.755-5.363,1.755c-1.945,0-3.797-0.603-5.355-1.744v0 c-0.043-0.031-0.085-0.062-0.129-0.092l-24.821-18.198c-0.071-0.055-0.144-0.109-0.217-0.162c-0.021-0.016-0.04-0.031-0.058-0.045 c-0.831-0.632-1.524-1.385-2.079-2.223c10.625,2.89,21.565,4.352,32.652,4.352c0.002,0,0.005,0,0.007,0 c11.087-0.001,22.025-1.463,32.648-4.354C284.582,208.769,283.844,209.561,282.952,210.215z"></path><path d="M476.901,182.571c3.468-9.277,14.021-37.507-2.75-54.278c-5.322-5.322-12.079-7.956-19.558-7.598 c-14.559,0.685-29.363,12.551-38.422,21.356c-8.893-22.664-19.796-43.565-32.533-62.066C348.128,28.406,301.563,0,252.519,0 c-37.974,0-74.611,16.997-105.953,49.154c-2.891,2.966-2.83,7.715,0.136,10.606c2.967,2.891,7.714,2.83,10.606-0.136 C185.761,30.43,218.684,15,252.519,15c43.959,0,86.137,26.099,118.762,73.49c32.476,47.173,52.53,110.923,56.673,179.887 l-26.337,19.255L321.84,244.29c-2.458-1.336-5.453-1.192-7.772,0.371l-61.549,41.485l-61.558-41.485 c-2.318-1.563-5.314-1.705-7.772-0.371l-79.767,43.343l-26.336-19.254c4.255-70.923,25.2-135.947,59.183-183.468 c2.409-3.369,1.631-8.054-1.738-10.463c-3.371-2.409-8.055-1.632-10.463,1.738c-13.903,19.441-25.712,41.635-35.219,65.846 c-9.061-8.803-23.854-20.652-38.402-21.336c-7.477-0.354-14.236,2.276-19.558,7.598c-6.218,6.218-9.334,14.554-9.26,24.776 c0.06,8.294,2.189,17.944,6.509,29.502c7.645,20.451,21.024,43.974,35.214,68.879c-0.206,2.151-0.399,4.306-0.575,6.468 l-15.691-11.472c-2.28-1.667-5.303-1.911-7.821-0.633c-2.519,1.279-4.105,3.864-4.105,6.688c0,67.23,22.47,130.488,63.271,178.12 C139.516,478.585,194.239,505,252.519,505c54.212,0,106.129-23.299,146.187-65.605c2.848-3.008,2.718-7.755-0.29-10.603 c-3.008-2.848-7.755-2.718-10.603,0.29C350.618,468.365,302.57,490,252.519,490c-107.271,0-195.314-98.465-201.957-222.432 l47.841,34.976c2.341,1.712,5.459,1.92,8.007,0.536l79.941-43.438l61.977,41.767c2.533,1.708,5.85,1.707,8.383,0l61.967-41.767 l79.951,43.438c2.548,1.385,5.666,1.176,8.007-0.536l47.833-34.97c-2.703,49.577-18.669,97.285-45.644,135.739 c-2.378,3.391-1.558,8.068,1.833,10.447c3.391,2.379,8.068,1.558,10.447-1.833C452.558,367.089,469.88,310.47,469.88,252.5 c0-2.824-1.586-5.409-4.105-6.688c-2.519-1.278-5.542-1.033-7.821,0.633l-15.691,11.471c-0.176-2.162-0.368-4.318-0.575-6.469 C455.878,226.544,469.257,203.021,476.901,182.571z M41.495,138.9c2.349-2.35,4.958-3.374,8.236-3.222 c11.355,0.525,26.055,14.016,33.394,21.981c-7.38,21.693-12.98,44.795-16.666,68.833C45.246,188.561,27.729,152.666,41.495,138.9z M455.297,135.678c3.276-0.154,5.895,0.87,8.247,3.221c13.767,13.767-3.755,49.669-24.971,87.605 c-3.689-24.006-9.302-47.105-16.684-68.809C429.08,149.925,444,136.21,455.297,135.678z"></path><path d="M144.618,161.872c-2.929,2.929-2.929,7.678,0,10.607c1.464,1.465,3.384,2.197,5.303,2.197 c1.919,0,3.839-0.732,5.303-2.197c10.604-10.604,27.859-10.604,38.462,0c2.929,2.929,7.678,2.929,10.606,0 c2.929-2.929,2.929-7.677,0-10.606C187.841,145.419,161.071,145.42,144.618,161.872z"></path><path d="M311.346,172.479c10.604-10.604,27.857-10.604,38.462,0c1.464,1.465,3.384,2.197,5.303,2.197s3.839-0.732,5.303-2.197 c2.929-2.929,2.929-7.677,0-10.606c-16.452-16.453-43.223-16.453-59.675,0c-2.929,2.929-2.929,7.677,0,10.606 C303.668,175.408,308.417,175.408,311.346,172.479z"></path></g></g></svg>