<!-- icon666.com - MILLIONS OF FREE VECTOR ICONS --><svg id="Layer_1" enable-background="new 0 0 24 24" viewBox="0 0 24 24" xmlns="http://www.w3.org/2000/svg"><g><path d="m16 19c-.3 0-.5-.1-.7-.3l-5-5c-.4-.4-.4-1 0-1.4s1-.4 1.4 0l4.3 4.3 4.3-4.3c.4-.4 1-.4 1.4 0s.4 1 0 1.4l-5 5c-.2.2-.4.3-.7.3z" fill="#000000" style="fill: rgb(8, 89, 21);"></path></g><g><path d="m16 19c-.6 0-1-.4-1-1v-10h-12c-.6 0-1-.4-1-1s.4-1 1-1h13c.6 0 1 .4 1 1v11c0 .6-.4 1-1 1z" fill="#000000" style="fill: rgb(8, 89, 21);"></path></g></svg>