<!-- icon666.com - MILLIONS OF FREE VECTOR ICONS --><svg fill="none" viewBox="0 0 24 24" xmlns="http://www.w3.org/2000/svg"><g fill="#001a72"><path d="m21 12c0 4.9706-4.0294 9-9 9-4.97056 0-9-4.0294-9-9 0-4.97056 4.02944-9 9-9 4.9706 0 9 4.02944 9 9z" opacity=".15" fill="#001a72" style="fill: rgb(17, 167, 97);"></path><path clip-rule="evenodd" d="m12 3.75c-4.55635 0-8.25 3.69365-8.25 8.25 0 4.5563 3.69365 8.25 8.25 8.25 4.5563 0 8.25-3.6937 8.25-8.25 0-4.55635-3.6937-8.25-8.25-8.25zm-9.75 8.25c0-5.38478 4.36522-9.75 9.75-9.75 5.3848 0 9.75 4.36522 9.75 9.75 0 5.3848-4.3652 9.75-9.75 9.75-5.38478 0-9.75-4.3652-9.75-9.75zm7.21967-5.53033c.29289-.29289.76773-.29289 1.06063 0l5 5.00003c.2929.2929.2929.7677 0 1.0606l-5 5c-.2929.2929-.76774.2929-1.06063 0s-.29289-.7677 0-1.0606l4.46963-4.4697-4.46963-4.46967c-.29289-.29289-.29289-.76777 0-1.06066z" fill-rule="evenodd" fill="#001a72" style="fill: rgb(17, 167, 97);"></path></g></svg>